<mxfile host="app.diagrams.net" agent="Mozilla/5.0 (Windows NT 10.0; Win64; x64; rv:133.0) Gecko/20100101 Firefox/133.0" version="25.0.1">
  <diagram name="Page-1" id="FDy-CoA_kGg1gj3GW_Qd">
    <mxGraphModel dx="1434" dy="782" grid="1" gridSize="10" guides="1" tooltips="1" connect="1" arrows="1" fold="1" page="1" pageScale="1" pageWidth="850" pageHeight="1100" math="0" shadow="0">
      <root>
        <mxCell id="0" />
        <mxCell id="1" parent="0" />
        <mxCell id="9wRAZa3eu1D-8AbTDfj7-1" value="Player enters a fight" style="rounded=0;whiteSpace=wrap;html=1;" parent="1" vertex="1">
          <mxGeometry x="345" width="160" height="80" as="geometry" />
        </mxCell>
        <mxCell id="9wRAZa3eu1D-8AbTDfj7-3" value="The fight menu pops up" style="rounded=0;whiteSpace=wrap;html=1;" parent="1" vertex="1">
          <mxGeometry x="345" y="120" width="160" height="80" as="geometry" />
        </mxCell>
        <mxCell id="9wRAZa3eu1D-8AbTDfj7-5" value="The Player is given the options of Attack, Magic, Item and Flee" style="rounded=0;whiteSpace=wrap;html=1;" parent="1" vertex="1">
          <mxGeometry x="345" y="240" width="160" height="80" as="geometry" />
        </mxCell>
        <mxCell id="9wRAZa3eu1D-8AbTDfj7-26" value="The player chooses Item" style="rounded=0;whiteSpace=wrap;html=1;" parent="1" vertex="1">
          <mxGeometry x="345" y="360" width="160" height="80" as="geometry" />
        </mxCell>
        <mxCell id="9wRAZa3eu1D-8AbTDfj7-27" value="" style="endArrow=classic;html=1;rounded=0;" parent="1" edge="1">
          <mxGeometry width="50" height="50" relative="1" as="geometry">
            <mxPoint x="425" y="320" as="sourcePoint" />
            <mxPoint x="425" y="365" as="targetPoint" />
          </mxGeometry>
        </mxCell>
        <mxCell id="9wRAZa3eu1D-8AbTDfj7-29" value="The player uses an item" style="rounded=0;whiteSpace=wrap;html=1;" parent="1" vertex="1">
          <mxGeometry x="345" y="470" width="155" height="80" as="geometry" />
        </mxCell>
        <mxCell id="9wRAZa3eu1D-8AbTDfj7-33" value="The item has a corrosponding effect, Heal HP, Hurt an enemy etc" style="rounded=0;whiteSpace=wrap;html=1;" parent="1" vertex="1">
          <mxGeometry x="350" y="600" width="155" height="80" as="geometry" />
        </mxCell>
        <mxCell id="9wRAZa3eu1D-8AbTDfj7-36" value="" style="endArrow=classic;html=1;rounded=0;entryX=0.5;entryY=0;entryDx=0;entryDy=0;" parent="1" target="9wRAZa3eu1D-8AbTDfj7-29" edge="1">
          <mxGeometry width="50" height="50" relative="1" as="geometry">
            <mxPoint x="425" y="440" as="sourcePoint" />
            <mxPoint x="395" y="470" as="targetPoint" />
          </mxGeometry>
        </mxCell>
        <mxCell id="9wRAZa3eu1D-8AbTDfj7-59" value="" style="endArrow=classic;html=1;rounded=0;" parent="1" edge="1">
          <mxGeometry width="50" height="50" relative="1" as="geometry">
            <mxPoint x="424" y="80" as="sourcePoint" />
            <mxPoint x="424" y="120" as="targetPoint" />
          </mxGeometry>
        </mxCell>
        <mxCell id="9wRAZa3eu1D-8AbTDfj7-60" value="" style="endArrow=classic;html=1;rounded=0;" parent="1" edge="1">
          <mxGeometry width="50" height="50" relative="1" as="geometry">
            <mxPoint x="424" y="200" as="sourcePoint" />
            <mxPoint x="424" y="240" as="targetPoint" />
          </mxGeometry>
        </mxCell>
        <mxCell id="DzNvRiuFFLAUnhZ63FK0-1" value="" style="endArrow=classic;html=1;rounded=0;entryX=0.5;entryY=0;entryDx=0;entryDy=0;" edge="1" parent="1" target="9wRAZa3eu1D-8AbTDfj7-33">
          <mxGeometry width="50" height="50" relative="1" as="geometry">
            <mxPoint x="420" y="550" as="sourcePoint" />
            <mxPoint x="470" y="500" as="targetPoint" />
          </mxGeometry>
        </mxCell>
      </root>
    </mxGraphModel>
  </diagram>
</mxfile>
